<?xml version="1.0" encoding="utf-8"?>
<!-- Generator: Adobe Illustrator 21.1.0, SVG Export Plug-In . SVG Version: 6.00 Build 0)  -->
<svg version="1.1" id="Layer_1" xmlns="http://www.w3.org/2000/svg" xmlns:xlink="http://www.w3.org/1999/xlink" x="0px" y="0px"
	 viewBox="0 0 40 40" style="enable-background:new 0 0 40 40;" xml:space="preserve">
<style type="text/css">
	.st0{fill:#FFFFFF;}
	.st1{fill:#1801FF;}
</style>
<g>
	<path class="st0" d="M20,37.5c-9.6,0-17.5-7.9-17.5-17.5S10.4,2.5,20,2.5S37.5,10.4,37.5,20S29.6,37.5,20,37.5z"/>
	<path class="st1" d="M20,3c9.4,0,17,7.6,17,17s-7.6,17-17,17S3,29.4,3,20S10.6,3,20,3 M20,2C10.1,2,2,10.1,2,20s8.1,18,18,18
		s18-8.1,18-18S29.9,2,20,2L20,2z"/>
</g>
<g>
	<path class="st1" d="M20,13.5c1,0,1.9,0.3,2.6,0.9c0.7,0.6,1.1,1.5,1.1,2.5c0,0.6-0.1,1.1-0.3,1.6c-0.2,0.5-0.4,0.9-0.7,1.1
		s-0.6,0.6-0.8,0.8c-0.3,0.2-0.5,0.5-0.7,0.8c-0.2,0.3-0.3,0.6-0.3,0.9v0.5H19V22c0-0.4,0.1-0.8,0.3-1.2c0.2-0.4,0.4-0.7,0.7-0.9
		c0.3-0.3,0.6-0.5,0.9-0.8c0.3-0.3,0.5-0.6,0.7-0.9s0.3-0.8,0.3-1.2c0-0.6-0.2-1.1-0.5-1.4c-0.3-0.3-0.8-0.5-1.3-0.5
		c-0.6,0-1.1,0.2-1.4,0.5s-0.5,0.9-0.5,1.5h-1.8c0-1.1,0.4-2,1.1-2.6C18.1,13.8,19,13.5,20,13.5z M19,24.4c0.2-0.2,0.5-0.3,0.9-0.3
		s0.7,0.1,0.9,0.3c0.2,0.2,0.4,0.5,0.4,0.9c0,0.4-0.1,0.7-0.4,0.9c-0.2,0.2-0.5,0.4-0.9,0.4s-0.7-0.1-0.9-0.4
		c-0.2-0.2-0.4-0.5-0.4-0.9C18.6,24.9,18.8,24.6,19,24.4z"/>
</g>
</svg>
