<?xml version="1.0" encoding="utf-8"?>
<!-- Generator: Adobe Illustrator 21.1.0, SVG Export Plug-In . SVG Version: 6.00 Build 0)  -->
<svg version="1.1" xmlns="http://www.w3.org/2000/svg" xmlns:xlink="http://www.w3.org/1999/xlink" x="0px" y="0px"
	 viewBox="0 0 93.5 20.8" style="enable-background:new 0 0 93.5 20.8;" xml:space="preserve">
<style type="text/css">
	.st0{display:none;}
	.st1{display:inline;}
	.st2{fill:none;stroke:#76D1FF;stroke-width:2.3813;stroke-linecap:square;stroke-linejoin:round;stroke-miterlimit:10;}
	.st3{fill:none;stroke:#009EFF;stroke-width:4.4279;stroke-linecap:square;stroke-linejoin:round;stroke-miterlimit:10;}
	.st4{fill:none;stroke:#1A36FF;stroke-width:4.4279;stroke-linecap:square;stroke-linejoin:round;stroke-miterlimit:10;}
	.st5{fill:#262442;}
	.st6{fill:none;stroke:#009EFF;stroke-width:3.213;stroke-linecap:square;stroke-linejoin:round;stroke-miterlimit:10;}
	.st7{fill:none;stroke:#1A36FF;stroke-width:3.213;stroke-linecap:square;stroke-linejoin:round;stroke-miterlimit:10;}
</style>
<g id="Layer_3_copy" class="st0">
	<g class="st1">
		<path class="st2" d="M24.2,17.1c0,0-1.7,1.3-3.6,1.3s-3.8-1.3-3.8-1.3"/>
		<path class="st3" d="M27.5,18.7c0,0-3.2,2.5-6.8,2.5s-7.1-2.5-7.1-2.5"/>
		<path class="st4" d="M32.6,20.2c0,0-5.5,4.2-11.7,4.2S8.5,20.2,8.5,20.2"/>
	</g>
	<g class="st1">
		<g>
			<path class="st5" d="M40.1,12h4.2c2.5,0,4.4,0.7,5.6,2c1.3,1.3,1.9,3.3,1.9,5.9c0,2.6-0.7,4.6-2,5.9c-1.3,1.3-3.3,2-5.8,2h-3.9
				V12z M42.4,14v11.7h1.5c2,0,3.5-0.5,4.3-1.4c0.9-0.9,1.3-2.4,1.3-4.5c0-2.1-0.4-3.5-1.3-4.5C47.3,14.5,45.9,14,44,14H42.4z"/>
			<path class="st5" d="M44,28h-4.2V11.8h4.4c2.6,0,4.5,0.7,5.8,2c1.3,1.4,2,3.4,2,6c0,2.7-0.7,4.7-2,6.1C48.7,27.3,46.7,28,44,28z
				 M40.4,27.5H44c2.5,0,4.4-0.6,5.7-1.9c1.3-1.3,1.9-3.2,1.9-5.7c0-2.5-0.6-4.4-1.8-5.7c-1.2-1.3-3-1.9-5.5-1.9h-3.9V27.5z
				 M43.9,26h-1.8V13.8H44c2,0,3.5,0.5,4.4,1.5c0.9,1,1.4,2.5,1.4,4.6c0,2.1-0.5,3.7-1.4,4.6C47.5,25.5,45.9,26,43.9,26z M42.6,25.5
				h1.3c1.9,0,3.3-0.4,4.2-1.3c0.8-0.9,1.3-2.3,1.3-4.3s-0.4-3.4-1.3-4.3c-0.8-0.9-2.2-1.3-4.1-1.3h-1.4V25.5z"/>
		</g>
		<g>
			<path class="st5" d="M60,16.3v2.1h-0.2c-0.7,0-1.3,0.2-1.8,0.7c-0.5,0.5-1,1.2-1.3,2.1v6.6h-2.1V16.4h2v2.3
				c0.4-0.8,0.8-1.4,1.3-1.8c0.5-0.4,1.1-0.6,1.7-0.6c0.1,0,0.2,0,0.2,0S59.9,16.3,60,16.3z"/>
			<path class="st5" d="M56.9,28h-2.6V16.1h2.5v1.6c0.3-0.4,0.6-0.8,0.9-1c0.6-0.4,1.2-0.7,1.9-0.7c0.1,0,0.2,0,0.2,0
				c0.1,0,0.1,0,0.2,0l0.2,0v2.6h-0.4c-0.6,0-1.2,0.2-1.7,0.7c-0.5,0.4-0.9,1.1-1.3,1.9V28z M54.8,27.5h1.6l0-6.4
				c0.4-0.9,0.8-1.6,1.4-2.1c0.6-0.5,1.2-0.8,1.9-0.8v-1.6c0,0-0.1,0-0.1,0c-0.6,0-1.1,0.2-1.6,0.5c-0.5,0.4-0.9,1-1.3,1.7l-0.5,1
				v-3.2h-1.5V27.5z"/>
		</g>
		<g>
			<path class="st5" d="M65.6,16.2c1.5,0,2.7,0.5,3.5,1.5c0.8,1,1.3,2.5,1.3,4.3c0,1.9-0.4,3.3-1.3,4.3c-0.8,1-2,1.5-3.5,1.5
				c-1.5,0-2.7-0.5-3.5-1.5c-0.8-1-1.3-2.5-1.3-4.3c0-1.9,0.4-3.3,1.3-4.3C62.9,16.7,64.1,16.2,65.6,16.2z M65.6,18
				c-0.9,0-1.5,0.3-2,1s-0.7,1.7-0.7,3.1c0,1.4,0.2,2.4,0.7,3.1c0.5,0.7,1.1,1,2,1c0.9,0,1.5-0.3,2-1c0.5-0.7,0.7-1.7,0.7-3.1
				c0-1.4-0.2-2.4-0.7-3.1C67.1,18.3,66.5,18,65.6,18z"/>
			<path class="st5" d="M65.6,28.2c-1.6,0-2.8-0.6-3.7-1.6c-0.9-1.1-1.3-2.6-1.3-4.5c0-1.9,0.4-3.4,1.3-4.5c0.9-1.1,2.1-1.6,3.7-1.6
				c1.6,0,2.8,0.6,3.7,1.6c0.9,1.1,1.3,2.6,1.3,4.5c0,1.9-0.4,3.4-1.3,4.5C68.4,27.7,67.2,28.2,65.6,28.2z M65.6,16.4
				c-1.4,0-2.5,0.5-3.3,1.5c-0.8,1-1.2,2.4-1.2,4.2c0,1.8,0.4,3.2,1.2,4.2c0.8,1,1.9,1.5,3.3,1.5c1.4,0,2.5-0.5,3.3-1.5
				c0.8-1,1.2-2.4,1.2-4.2c0-1.8-0.4-3.2-1.2-4.2C68.1,16.9,67,16.4,65.6,16.4z M65.6,26.4c-1,0-1.7-0.4-2.2-1.2
				c-0.5-0.7-0.7-1.8-0.7-3.2c0-1.4,0.2-2.5,0.7-3.2c0.5-0.8,1.2-1.1,2.2-1.1s1.7,0.4,2.2,1.2c0.5,0.7,0.7,1.8,0.7,3.2
				c0,1.4-0.2,2.5-0.7,3.2C67.3,26.1,66.6,26.4,65.6,26.4z M65.6,18.2c-0.8,0-1.4,0.3-1.8,0.9c-0.4,0.6-0.6,1.6-0.6,2.9
				c0,1.3,0.2,2.3,0.6,2.9c0.4,0.6,1,0.9,1.8,0.9c0.8,0,1.4-0.3,1.8-0.9c0.4-0.7,0.6-1.6,0.6-2.9c0-1.3-0.2-2.3-0.6-2.9
				C67,18.5,66.4,18.2,65.6,18.2z"/>
		</g>
		<g>
			<path class="st5" d="M74.7,26.6v5.3h-2V16.4h1.5l0.3,1.3c0.4-0.5,0.9-0.9,1.4-1.2c0.5-0.2,1-0.4,1.6-0.4c1.4,0,2.6,0.5,3.4,1.6
				c0.8,1.1,1.2,2.5,1.2,4.3c0,1.8-0.4,3.3-1.2,4.3c-0.8,1-2,1.5-3.4,1.5c-0.6,0-1.1-0.1-1.6-0.3C75.5,27.4,75.1,27.1,74.7,26.6z
				 M74.7,24.9c0.4,0.5,0.8,0.8,1.2,1s0.9,0.3,1.3,0.3c0.9,0,1.6-0.4,2.1-1.1s0.7-1.7,0.7-3c0-1.4-0.2-2.4-0.7-3.1
				c-0.5-0.7-1.2-1.1-2.1-1.1c-0.5,0-0.9,0.1-1.3,0.3c-0.4,0.2-0.8,0.6-1.2,1V24.9z"/>
			<path class="st5" d="M75,32.1h-2.5v-16h2l0.2,1.1c0.4-0.4,0.7-0.7,1.1-0.9c0.5-0.3,1.1-0.4,1.7-0.4c1.5,0,2.7,0.6,3.6,1.7
				c0.9,1.1,1.3,2.6,1.3,4.5c0,1.9-0.4,3.4-1.3,4.4c-0.9,1.1-2.1,1.6-3.6,1.6c-0.6,0-1.2-0.1-1.7-0.4c-0.3-0.1-0.6-0.3-0.9-0.6V32.1
				z M72.9,31.6h1.5v-5.8l0.4,0.6c0.3,0.4,0.7,0.7,1.1,0.9c0.4,0.2,0.9,0.3,1.4,0.3c1.4,0,2.4-0.5,3.2-1.4c0.8-1,1.2-2.4,1.2-4.1
				c0-1.8-0.4-3.2-1.2-4.2c-0.8-1-1.8-1.5-3.2-1.5c-0.6,0-1.1,0.1-1.5,0.3c-0.5,0.2-0.9,0.6-1.3,1.1l-0.3,0.4L74,16.6h-1.1V31.6z
				 M77.2,26.5c-0.5,0-1-0.1-1.4-0.4c-0.4-0.2-0.9-0.6-1.3-1.1L74.4,25v-5.7l0.1-0.1c0.4-0.5,0.8-0.9,1.2-1.1
				c0.4-0.2,0.9-0.4,1.4-0.4c1,0,1.8,0.4,2.3,1.2c0.5,0.8,0.8,1.9,0.8,3.3c0,1.4-0.3,2.4-0.8,3.2C79,26.1,78.2,26.5,77.2,26.5z
				 M74.9,24.8c0.4,0.4,0.7,0.7,1.1,0.9c0.4,0.2,0.8,0.3,1.2,0.3c0.8,0,1.4-0.3,1.9-1c0.5-0.7,0.7-1.6,0.7-2.9c0-1.3-0.2-2.3-0.7-3
				c-0.4-0.6-1.1-1-1.9-1c-0.4,0-0.8,0.1-1.2,0.3c-0.4,0.2-0.7,0.5-1,0.9V24.8z"/>
		</g>
		<g>
			<path class="st5" d="M89,12v1.7c-0.2,0-0.4-0.1-0.6-0.1s-0.3,0-0.4,0c-0.5,0-0.8,0.1-1,0.3c-0.2,0.2-0.3,0.6-0.3,1.1v1.4h2.3v1.7
				h-2.3v9.6h-2v-9.6h-1.8v-1.7h1.8v-1.6c0-0.9,0.3-1.7,0.8-2.2c0.5-0.5,1.2-0.8,2.2-0.8c0.2,0,0.4,0,0.7,0
				C88.5,11.9,88.7,11.9,89,12z"/>
			<path class="st5" d="M86.9,28h-2.5v-9.6h-1.8v-2.2h1.8v-1.4c0-1,0.3-1.8,0.8-2.3c0.5-0.5,1.3-0.8,2.4-0.8c0.2,0,0.4,0,0.7,0
				c0.3,0,0.5,0.1,0.8,0.1l0.2,0V14l-0.3,0c-0.2,0-0.4-0.1-0.6-0.1c-0.2,0-0.3,0-0.4,0c-0.4,0-0.7,0.1-0.8,0.2
				c-0.2,0.2-0.2,0.5-0.2,0.9v1.1h2.3v2.2h-2.3V28z M84.9,27.5h1.5v-9.6h2.3v-1.2h-2.3V15c0-0.6,0.1-1,0.4-1.3
				c0.2-0.3,0.7-0.4,1.2-0.4c0.1,0,0.3,0,0.5,0c0.1,0,0.2,0,0.3,0v-1.2c-0.2,0-0.4-0.1-0.6-0.1c-0.2,0-0.4,0-0.6,0
				c-0.9,0-1.6,0.2-2,0.7c-0.5,0.4-0.7,1.1-0.7,2v1.9h-1.8v1.2h1.8V27.5z"/>
		</g>
		<g>
			<path class="st5" d="M90.6,16.4h2.1V24c0,0.8,0.1,1.3,0.4,1.7c0.3,0.3,0.7,0.5,1.3,0.5c0.4,0,0.9-0.1,1.4-0.4
				c0.5-0.3,1-0.6,1.4-1.1v-8.3h2.1v11.3h-1.9v-1.5c-0.7,0.6-1.3,1-1.9,1.3c-0.6,0.3-1.2,0.4-1.8,0.4c-1,0-1.7-0.3-2.3-0.9
				s-0.8-1.4-0.8-2.5V16.4z"/>
			<path class="st5" d="M93.6,28.2c-1,0-1.9-0.3-2.4-0.9c-0.6-0.6-0.9-1.5-0.9-2.6v-8.4h2.6V24c0,0.7,0.1,1.2,0.3,1.5
				c0.2,0.3,0.6,0.4,1.1,0.4c0.4,0,0.8-0.1,1.3-0.4c0.4-0.2,0.9-0.6,1.3-1v-8.5h2.6V28H97v-1.2c-0.5,0.4-1,0.8-1.5,1
				C94.9,28,94.3,28.2,93.6,28.2z M90.8,16.6v7.9c0,1,0.2,1.8,0.7,2.3c0.5,0.5,1.2,0.8,2.1,0.8c0.6,0,1.1-0.1,1.7-0.4
				c0.5-0.3,1.2-0.7,1.8-1.3l0.4-0.4v1.8h1.4V16.6h-1.6v8.2l-0.1,0.1c-0.5,0.5-1,0.9-1.5,1.2c-0.5,0.3-1,0.4-1.5,0.4
				c-0.7,0-1.2-0.2-1.5-0.6c-0.3-0.4-0.4-1-0.4-1.8v-7.4H90.8z"/>
		</g>
		<g>
			<path class="st5" d="M102.5,12h2v15.7h-2V12z"/>
			<path class="st5" d="M104.8,28h-2.5V11.8h2.5V28z M102.8,27.5h1.5V12.3h-1.5V27.5z"/>
		</g>
	</g>
</g>
<g id="Layer_3">
	<g>
		<path class="st6" d="M16.4,5c0,0-2.3,1.8-4.9,1.8S6.3,5,6.3,5"/>
		<path class="st7" d="M20.1,10.1c0,0-4,3.1-8.5,3.1s-8.9-3.1-8.9-3.1"/>
	</g>
	<g>
		<g>
			<path class="st5" d="M27.9,0.7h4.2c2.5,0,4.4,0.7,5.6,2C39,4,39.7,5.9,39.7,8.5c0,2.6-0.7,4.6-2,5.9c-1.3,1.3-3.3,2-5.8,2h-3.9
				V0.7z M30.2,2.7v11.7h1.5c2,0,3.5-0.5,4.3-1.4c0.9-0.9,1.3-2.4,1.3-4.5c0-2.1-0.4-3.5-1.3-4.5c-0.9-0.9-2.3-1.4-4.3-1.4H30.2z"/>
			<path class="st5" d="M31.9,16.7h-4.2V0.4h4.4c2.6,0,4.5,0.7,5.8,2c1.3,1.4,2,3.4,2,6c0,2.7-0.7,4.7-2,6.1
				C36.5,16,34.5,16.7,31.9,16.7z M28.2,16.2h3.7c2.5,0,4.4-0.6,5.7-1.9c1.3-1.3,1.9-3.2,1.9-5.7c0-2.5-0.6-4.4-1.8-5.7
				c-1.2-1.3-3-1.9-5.5-1.9h-3.9V16.2z M31.7,14.6h-1.8V2.4h1.9c2,0,3.5,0.5,4.4,1.5c0.9,1,1.4,2.5,1.4,4.6c0,2.1-0.5,3.7-1.4,4.6
				C35.3,14.1,33.8,14.6,31.7,14.6z M30.4,14.1h1.3c1.9,0,3.3-0.4,4.2-1.3c0.8-0.9,1.3-2.3,1.3-4.3s-0.4-3.4-1.3-4.3
				c-0.8-0.9-2.2-1.3-4.1-1.3h-1.4V14.1z"/>
		</g>
		<g>
			<path class="st5" d="M47.8,4.9V7h-0.2c-0.7,0-1.3,0.2-1.8,0.7c-0.5,0.5-1,1.2-1.3,2.1v6.6h-2.1V5.1h2v2.3
				c0.4-0.8,0.8-1.4,1.3-1.8c0.5-0.4,1.1-0.6,1.7-0.6c0.1,0,0.2,0,0.2,0S47.8,4.9,47.8,4.9z"/>
			<path class="st5" d="M44.7,16.7h-2.6V4.8h2.5v1.6c0.3-0.4,0.6-0.8,0.9-1c0.6-0.4,1.2-0.7,1.9-0.7c0.1,0,0.2,0,0.2,0
				c0.1,0,0.1,0,0.2,0l0.2,0v2.6h-0.4c-0.6,0-1.2,0.2-1.7,0.7C45.5,8.4,45,9,44.7,9.9V16.7z M42.6,16.2h1.6l0-6.4
				c0.4-0.9,0.8-1.6,1.4-2.1c0.6-0.5,1.2-0.8,1.9-0.8V5.2c0,0-0.1,0-0.1,0c-0.6,0-1.1,0.2-1.6,0.5c-0.5,0.4-0.9,1-1.3,1.7l-0.5,1
				V5.3h-1.5V16.2z"/>
		</g>
		<g>
			<path class="st5" d="M53.4,4.9c1.5,0,2.7,0.5,3.5,1.5c0.8,1,1.3,2.5,1.3,4.3c0,1.9-0.4,3.3-1.3,4.3c-0.8,1-2,1.5-3.5,1.5
				c-1.5,0-2.7-0.5-3.5-1.5c-0.8-1-1.3-2.5-1.3-4.3c0-1.9,0.4-3.3,1.3-4.3C50.7,5.4,51.9,4.9,53.4,4.9z M53.4,6.6
				c-0.9,0-1.5,0.3-2,1s-0.7,1.7-0.7,3.1c0,1.4,0.2,2.4,0.7,3.1c0.5,0.7,1.1,1,2,1c0.9,0,1.5-0.3,2-1c0.5-0.7,0.7-1.7,0.7-3.1
				c0-1.4-0.2-2.4-0.7-3.1C55,7,54.3,6.6,53.4,6.6z"/>
			<path class="st5" d="M53.4,16.9c-1.6,0-2.8-0.6-3.7-1.6c-0.9-1.1-1.3-2.6-1.3-4.5c0-1.9,0.4-3.4,1.3-4.5c0.9-1.1,2.1-1.6,3.7-1.6
				c1.6,0,2.8,0.6,3.7,1.6c0.9,1.1,1.3,2.6,1.3,4.5c0,1.9-0.4,3.4-1.3,4.5C56.2,16.3,55,16.9,53.4,16.9z M53.4,5.1
				c-1.4,0-2.5,0.5-3.3,1.5c-0.8,1-1.2,2.4-1.2,4.2c0,1.8,0.4,3.2,1.2,4.2c0.8,1,1.9,1.5,3.3,1.5c1.4,0,2.5-0.5,3.3-1.5
				c0.8-1,1.2-2.4,1.2-4.2c0-1.8-0.4-3.2-1.2-4.2C55.9,5.6,54.9,5.1,53.4,5.1z M53.4,15.1c-1,0-1.7-0.4-2.2-1.2
				c-0.5-0.7-0.7-1.8-0.7-3.2c0-1.4,0.2-2.5,0.7-3.2c0.5-0.8,1.2-1.1,2.2-1.1s1.7,0.4,2.2,1.2c0.5,0.7,0.7,1.8,0.7,3.2
				c0,1.4-0.2,2.5-0.7,3.2C55.1,14.7,54.4,15.1,53.4,15.1z M53.4,6.9c-0.8,0-1.4,0.3-1.8,0.9C51.2,8.4,51,9.4,51,10.7
				c0,1.3,0.2,2.3,0.6,2.9c0.4,0.6,1,0.9,1.8,0.9c0.8,0,1.4-0.3,1.8-0.9c0.4-0.7,0.6-1.6,0.6-2.9c0-1.3-0.2-2.3-0.6-2.9
				C54.8,7.2,54.2,6.9,53.4,6.9z"/>
		</g>
		<g>
			<path class="st5" d="M62.5,15.2v5.3h-2V5.1H62l0.3,1.3c0.4-0.5,0.9-0.9,1.4-1.2c0.5-0.2,1-0.4,1.6-0.4c1.4,0,2.6,0.5,3.4,1.6
				c0.8,1.1,1.2,2.5,1.2,4.3c0,1.8-0.4,3.3-1.2,4.3c-0.8,1-2,1.5-3.4,1.5c-0.6,0-1.1-0.1-1.6-0.3C63.3,16,62.9,15.7,62.5,15.2z
				 M62.5,13.5c0.4,0.5,0.8,0.8,1.2,1s0.9,0.3,1.3,0.3c0.9,0,1.6-0.4,2.1-1.1s0.7-1.7,0.7-3c0-1.4-0.2-2.4-0.7-3.1
				C66.6,7,65.9,6.6,65,6.6c-0.5,0-0.9,0.1-1.3,0.3c-0.4,0.2-0.8,0.6-1.2,1V13.5z"/>
			<path class="st5" d="M62.8,20.8h-2.5v-16h2l0.2,1.1c0.4-0.4,0.7-0.7,1.1-0.9c0.5-0.3,1.1-0.4,1.7-0.4c1.5,0,2.7,0.6,3.6,1.7
				c0.9,1.1,1.3,2.6,1.3,4.5c0,1.9-0.4,3.4-1.3,4.4c-0.9,1.1-2.1,1.6-3.6,1.6c-0.6,0-1.2-0.1-1.7-0.4c-0.3-0.1-0.6-0.3-0.9-0.6V20.8
				z M60.7,20.3h1.5v-5.8l0.4,0.6c0.3,0.4,0.7,0.7,1.1,0.9c0.4,0.2,0.9,0.3,1.4,0.3c1.4,0,2.4-0.5,3.2-1.4c0.8-1,1.2-2.4,1.2-4.1
				c0-1.8-0.4-3.2-1.2-4.2c-0.8-1-1.8-1.5-3.2-1.5c-0.6,0-1.1,0.1-1.5,0.3c-0.5,0.2-0.9,0.6-1.3,1.1L62.2,7l-0.4-1.7h-1.1V20.3z
				 M65,15.2c-0.5,0-1-0.1-1.4-0.4c-0.4-0.2-0.9-0.6-1.3-1.1l-0.1-0.1V7.9l0.1-0.1c0.4-0.5,0.8-0.9,1.2-1.1C64,6.5,64.5,6.4,65,6.4
				c1,0,1.8,0.4,2.3,1.2c0.5,0.8,0.8,1.9,0.8,3.3c0,1.4-0.3,2.4-0.8,3.2C66.8,14.8,66,15.2,65,15.2z M62.8,13.4
				c0.4,0.4,0.7,0.7,1.1,0.9c0.4,0.2,0.8,0.3,1.2,0.3c0.8,0,1.4-0.3,1.9-1c0.5-0.7,0.7-1.6,0.7-2.9c0-1.3-0.2-2.3-0.7-3
				c-0.4-0.6-1.1-1-1.9-1c-0.4,0-0.8,0.1-1.2,0.3c-0.4,0.2-0.7,0.5-1,0.9V13.4z"/>
		</g>
		<g>
			<path class="st5" d="M76.9,0.7v1.7c-0.2,0-0.4-0.1-0.6-0.1s-0.3,0-0.4,0c-0.5,0-0.8,0.1-1,0.3c-0.2,0.2-0.3,0.6-0.3,1.1v1.4h2.3
				v1.7h-2.3v9.6h-2V6.8h-1.8V5.1h1.8V3.4c0-0.9,0.3-1.7,0.8-2.2c0.5-0.5,1.2-0.8,2.2-0.8c0.2,0,0.4,0,0.7,0
				C76.3,0.6,76.6,0.6,76.9,0.7z"/>
			<path class="st5" d="M74.7,16.7h-2.5V7h-1.8V4.8h1.8V3.4c0-1,0.3-1.8,0.8-2.3c0.5-0.5,1.3-0.8,2.4-0.8c0.2,0,0.4,0,0.7,0
				c0.3,0,0.5,0.1,0.8,0.1l0.2,0v2.2l-0.3,0c-0.2,0-0.4-0.1-0.6-0.1c-0.2,0-0.3,0-0.4,0c-0.4,0-0.7,0.1-0.8,0.2
				c-0.2,0.2-0.2,0.5-0.2,0.9v1.1H77V7h-2.3V16.7z M72.7,16.2h1.5V6.5h2.3V5.3h-2.3V3.7c0-0.6,0.1-1,0.4-1.3C74.9,2.1,75.3,2,75.8,2
				c0.1,0,0.3,0,0.5,0c0.1,0,0.2,0,0.3,0V0.9c-0.2,0-0.4-0.1-0.6-0.1c-0.2,0-0.4,0-0.6,0c-0.9,0-1.6,0.2-2,0.7
				c-0.5,0.4-0.7,1.1-0.7,2v1.9h-1.8v1.2h1.8V16.2z"/>
		</g>
		<g>
			<path class="st5" d="M78.4,5.1h2.1v7.6c0,0.8,0.1,1.3,0.4,1.7c0.3,0.3,0.7,0.5,1.3,0.5c0.4,0,0.9-0.1,1.4-0.4
				c0.5-0.3,1-0.6,1.4-1.1V5.1H87v11.3h-1.9v-1.5c-0.7,0.6-1.3,1-1.9,1.3c-0.6,0.3-1.2,0.4-1.8,0.4c-1,0-1.7-0.3-2.3-0.9
				s-0.8-1.4-0.8-2.5V5.1z"/>
			<path class="st5" d="M81.5,16.8c-1,0-1.9-0.3-2.4-0.9c-0.6-0.6-0.9-1.5-0.9-2.6V4.8h2.6v7.9c0,0.7,0.1,1.2,0.3,1.5
				c0.2,0.3,0.6,0.4,1.1,0.4c0.4,0,0.8-0.1,1.3-0.4c0.4-0.2,0.9-0.6,1.3-1V4.8h2.6v11.8h-2.4v-1.2c-0.5,0.4-1,0.8-1.5,1
				C82.7,16.7,82.1,16.8,81.5,16.8z M78.7,5.3v7.9c0,1,0.2,1.8,0.7,2.3c0.5,0.5,1.2,0.8,2.1,0.8c0.6,0,1.1-0.1,1.7-0.4
				c0.5-0.3,1.2-0.7,1.8-1.3l0.4-0.4v1.8h1.4V5.3h-1.6v8.2l-0.1,0.1c-0.5,0.5-1,0.9-1.5,1.2c-0.5,0.3-1,0.4-1.5,0.4
				c-0.7,0-1.2-0.2-1.5-0.6c-0.3-0.4-0.4-1-0.4-1.8V5.3H78.7z"/>
		</g>
		<g>
			<path class="st5" d="M90.3,0.7h2v15.7h-2V0.7z"/>
			<path class="st5" d="M92.6,16.7h-2.5V0.4h2.5V16.7z M90.6,16.2h1.5V0.9h-1.5V16.2z"/>
		</g>
	</g>
</g>
</svg>
